<?xml version="1.0" encoding="UTF-8"?>
<svg width="92px" height="92px" viewBox="0 0 92 92" version="1.1" xmlns="http://www.w3.org/2000/svg" xmlns:xlink="http://www.w3.org/1999/xlink">
    <title> </title>
    <g id="-" stroke="none" stroke-width="1" fill="none" fill-rule="evenodd">
        <g id="编组" transform="translate(3.000000, 3.000000)" fill="#151515" fill-rule="nonzero">
            <path d="M42.988915,20.937184 C37.1349351,20.9286324 31.5182524,23.2503406 27.3788591,27.38977 C23.2394658,31.5291993 20.9177777,37.1459309 20.9263293,42.9999617 C20.9177777,48.8539925 23.2394658,54.4707241 27.3788591,58.6101535 C31.5182524,62.7495828 37.1349351,65.071291 42.988915,65.0627394 C48.8428949,65.071291 54.4595777,62.7495828 58.598971,58.6101535 C62.7383643,54.4707241 65.0600523,48.8539925 65.0515008,42.9999617 C65.0600523,37.1459309 62.7383643,31.5291993 58.598971,27.38977 C54.4595777,23.2503406 48.8428949,20.9286324 42.988915,20.937184 Z M42.988915,57.3394082 C35.07566,57.3246197 28.6643817,50.9132856 28.6495933,42.9999617 C28.6643817,35.0866378 35.07566,28.6753037 42.988915,28.6605152 C50.9021701,28.6753037 57.3134484,35.0866378 57.3282368,42.9999617 C57.3134484,50.9132856 50.9021701,57.3246197 42.988915,57.3394082 Z M65.9544029,14.8907516 C63.1078161,14.8907516 60.8002015,17.1984116 60.8002015,20.0450233 C60.8002015,22.8916349 63.1078161,25.1992696 65.9544029,25.1992696 C68.8029189,25.1992696 71.1086157,22.9043132 71.1086157,20.0450233 C71.1114718,18.676223 70.5686235,17.3627378 69.6002377,16.3953523 C68.6318518,15.4279667 67.317813,14.886483 65.9490284,14.8907516 L65.9544029,14.8907516 Z M85.9907565,42.9999617 C85.9907565,37.061023 86.0445021,31.1758304 85.7112795,25.2530156 C85.3780569,18.3681464 83.8086859,12.2572204 78.7780992,7.22659 C73.7260143,2.17446114 67.6312652,0.615825678 60.7464559,0.287974774 C54.8075689,-0.0506253776 48.9224275,0.00312069014 42.9996642,0.00312069014 C37.0607772,0.00312069014 31.1756358,-0.0506253776 25.2528724,0.287974774 C18.3680632,0.621200343 12.2571903,2.19058497 7.2266037,7.22121541 C2.1745188,12.2733443 0.615896898,18.3681464 0.288048846,25.2530156 C-0.0505483597,31.1919542 0.00319724048,37.0771469 0.00319724048,42.9999617 C0.00319724048,48.9281511 -0.0505483597,54.824093 0.282674311,60.7469079 C0.615896898,67.631777 2.18526795,73.7427031 7.21585455,78.7733334 C12.2679395,83.8254623 18.3626886,85.3840977 25.2474979,85.7119486 C31.1917595,86.0505488 37.0769009,85.9968027 42.9996642,85.9968027 C48.9385512,85.9968027 54.8236926,86.0505488 60.7464559,85.7173232 C67.6312651,85.3840977 73.742138,83.814713 78.7727247,78.7840827 C83.8248096,73.7319538 85.3834315,67.6371517 85.7112795,60.7522824 C86.0552513,54.824093 85.9961311,48.9389004 85.9961311,42.9999617 L85.9907565,42.9999617 Z M76.5315338,68.3680979 C75.8190154,70.2263069 74.7092933,71.9064958 73.279926,73.2912362 C71.8912362,74.7170599 70.2097382,75.8246211 68.351456,76.5374977 C62.692046,78.7840826 49.2610246,78.2788697 42.988915,78.2788697 C36.7168054,78.2788697 23.275035,78.7840826 17.615625,76.5482469 C15.756001,75.8379857 14.0739717,74.7300746 12.687155,73.3019854 C11.2613437,71.9132836 10.1537921,70.231771 9.44092171,68.3734725 C7.19973086,62.7032641 7.71031394,49.2721259 7.71031394,42.9999617 C7.71031394,36.7277975 7.19973086,23.2859101 9.44092171,17.626451 C10.2256072,15.6700947 11.1715295,14.2028275 12.687155,12.697938 C14.2027806,11.1930485 15.6592858,10.2363689 17.615625,9.45167651 C23.275035,7.21584075 36.7168054,7.72105369 42.988915,7.72105369 C49.2610246,7.72105369 62.7027951,7.21584083 68.3622051,9.45167651 C70.3185444,10.2363689 71.7857988,11.1822993 73.2906751,12.697938 C74.8063006,14.2135766 75.7522228,15.6700946 76.5369084,17.626451 C78.7727247,23.2859101 78.2675161,36.7277975 78.2675161,42.9999617 C78.2675161,49.2721259 78.7727246,62.7032641 76.5261593,68.3680979 L76.5315338,68.3680979 Z" id="形状"></path>
        </g>
    </g>
</svg>